<svg width="33" height="32" viewBox="0 0 33 32" fill="none" xmlns="http://www.w3.org/2000/svg">
<rect x="0.0499878" width="32" height="32" rx="16" fill="black" fill-opacity="0.6"/>
<path d="M15.2169 15.8668C15.2169 16.2534 15.5303 16.5668 15.9169 16.5668C16.3035 16.5668 16.6169 16.2534 16.6169 15.8668C16.6169 15.4802 16.3035 15.1668 15.9169 15.1668C15.5303 15.1668 15.2169 15.4802 15.2169 15.8668Z" fill="white" stroke="white" stroke-width="1.16667" stroke-linecap="round" stroke-linejoin="round"/>
<path d="M21.0499 15.8668C21.0499 16.2534 21.3633 16.5668 21.7499 16.5668C22.1365 16.5668 22.4499 16.2534 22.4499 15.8668C22.4499 15.4802 22.1365 15.1668 21.7499 15.1668C21.3633 15.1668 21.0499 15.4802 21.0499 15.8668Z" fill="white" stroke="white" stroke-width="1.16667" stroke-linecap="round" stroke-linejoin="round"/>
<path d="M9.38343 15.8668C9.38343 16.2534 9.69683 16.5668 10.0834 16.5668C10.47 16.5668 10.7834 16.2534 10.7834 15.8668C10.7834 15.4802 10.47 15.1668 10.0834 15.1668C9.69683 15.1668 9.38343 15.4802 9.38343 15.8668Z" fill="white" stroke="white" stroke-width="1.16667" stroke-linecap="round" stroke-linejoin="round"/>
</svg>
